<?xml version="1.0" standalone="no"?>
<!DOCTYPE svg PUBLIC "-//W3C//DTD SVG 20010904//EN"
 "http://www.w3.org/TR/2001/REC-SVG-20010904/DTD/svg10.dtd">
<svg version="1.0" xmlns="http://www.w3.org/2000/svg"
 width="320.000000pt" height="320.000000pt" viewBox="0 0 320.000000 320.000000"
 preserveAspectRatio="xMidYMid meet">
<metadata>
Created by potrace 1.14, written by Peter Selinger 2001-2017
</metadata>
<g transform="translate(0.000000,320.000000) scale(0.100000,-0.100000)"
fill="#000000" stroke="none">
<path d="M0 1600 l0 -1600 1600 0 1600 0 0 1600 0 1600 -1600 0 -1600 0 0
-1600z m1360 850 l0 -130 -95 0 c-149 0 -254 -44 -342 -144 -63 -72 -86 -140
-91 -278 l-4 -118 506 0 506 0 0 400 0 400 135 0 135 0 0 -400 0 -400 265 0
266 0 -3 -127 -3 -128 -264 -3 -263 -2 4 -118 c3 -102 7 -125 31 -176 51 -111
129 -185 232 -220 29 -10 96 -20 158 -23 l108 -6 -2 -125 -2 -124 -131 4
c-109 4 -144 9 -211 32 -216 74 -362 226 -430 447 -10 31 -19 107 -22 182 l-6
127 -503 0 -504 0 0 -395 0 -395 -132 0 -133 0 5 667 c5 648 6 670 26 723 55
142 115 229 219 313 125 101 257 144 443 146 l102 1 0 -130z"/>
</g>
</svg>
